<mxfile host="app.diagrams.net" agent="Mozilla/5.0 (Windows NT 10.0; Win64; x64) AppleWebKit/537.36 (KHTML, like Gecko) Chrome/138.0.0.0 Safari/537.36" version="25.0.3">
  <diagram id="system-architecture" name="System Architecture">
    <mxGraphModel dx="3457" dy="1830" grid="1" gridSize="10" guides="1" tooltips="1" connect="1" arrows="1" fold="1" page="1" pageScale="1" pageWidth="1654" pageHeight="1169" math="0" shadow="0">
      <root>
        <mxCell id="0" />
        <mxCell id="1" parent="0" />
        <mxCell id="title" value="🏗️ Streamer Alarm System v2.0 - Architecture" style="text;html=1;strokeColor=none;fillColor=none;align=center;verticalAlign=middle;whiteSpace=wrap;rounded=0;fontSize=24;fontStyle=1;" parent="1" vertex="1">
          <mxGeometry x="527" y="20" width="600" height="40" as="geometry" />
        </mxCell>
        <mxCell id="electron-container" value="🖥️ Electron Application" style="swimlane;whiteSpace=wrap;html=1;fontSize=16;fontStyle=1;fillColor=#E1D5E7;strokeColor=#9673A6;" parent="1" vertex="1">
          <mxGeometry x="50" y="80" width="1554" height="1070" as="geometry" />
        </mxCell>
        <mxCell id="main-process" value="🔧 Main Process (Backend)" style="swimlane;whiteSpace=wrap;html=1;fontSize=14;fontStyle=1;fillColor=#D5E8D4;strokeColor=#82B366;" parent="electron-container" vertex="1">
          <mxGeometry x="20" y="40" width="1000" height="760" as="geometry" />
        </mxCell>
        <mxCell id="app-core" value="🎯 StreamerAlarmApp&#xa;(Application Core)" style="rounded=1;whiteSpace=wrap;html=1;fontSize=12;fontStyle=1;fillColor=#FFF2CC;strokeColor=#D6B656;" parent="main-process" vertex="1">
          <mxGeometry x="50" y="40" width="600" height="80" as="geometry" />
        </mxCell>
        <mxCell id="monitoring-service" value="📡 MonitoringService&#xa;(Core Orchestrator)&#xa;&#xa;• 30s 주기 스케줄링&#xa;• 플랫폼별 병렬 실행&#xa;• 절전모드 감지&#xa;• 상태 지속성 관리" style="rounded=1;whiteSpace=wrap;html=1;fontSize=10;fillColor=#FFE6CC;strokeColor=#D79B00;" parent="main-process" vertex="1">
          <mxGeometry x="50" y="150" width="600" height="120" as="geometry" />
        </mxCell>
        <mxCell id="chzzk-monitor" value="🎯 ChzzkMonitor&#xa;(CHZZK API)&#xa;&#xa;• 실시간 라이브 감지&#xa;• 프로필 이미지 동기화&#xa;• HTTP 연결 풀링&#xa;• 상태 변경 감지" style="rounded=1;whiteSpace=wrap;html=1;fontSize=10;fillColor=#F8CECC;strokeColor=#B85450;" parent="main-process" vertex="1">
          <mxGeometry x="50" y="320" width="180" height="120" as="geometry" />
        </mxCell>
        <mxCell id="twitter-monitor" value="🐦 TwitterMonitor&#xa;(RSS Parser)&#xa;&#xa;• RSS 피드 파싱&#xa;• 다중 인스턴스 전환&#xa;• 텍스트 정리&#xa;• 중복 제거" style="rounded=1;whiteSpace=wrap;html=1;fontSize=10;fillColor=#F8CECC;strokeColor=#B85450;" parent="main-process" vertex="1">
          <mxGeometry x="260" y="320" width="180" height="120" as="geometry" />
        </mxCell>
        <mxCell id="cafe-monitor" value="☕ CafeMonitor&#xa;(Playwright)&#xa;&#xa;• 브라우저 자동화&#xa;• 세션 관리&#xa;• 자동 로그인&#xa;• iframe 접근" style="rounded=1;whiteSpace=wrap;html=1;fontSize=10;fillColor=#F8CECC;strokeColor=#B85450;" parent="main-process" vertex="1">
          <mxGeometry x="470" y="320" width="180" height="120" as="geometry" />
        </mxCell>
        <mxCell id="database-manager" value="🗄️ DatabaseManager&#xa;(SQLite CRUD)&#xa;&#xa;• better-sqlite3&#xa;• 트랜잭션 처리&#xa;• 스키마 마이그레이션&#xa;• 준비된 문장" style="rounded=1;whiteSpace=wrap;html=1;fontSize=10;fillColor=#DAE8FC;strokeColor=#6C8EBF;" parent="main-process" vertex="1">
          <mxGeometry x="50" y="480" width="180" height="120" as="geometry" />
        </mxCell>
        <mxCell id="notification-service" value="🔔 NotificationService&#xa;(알림 통합)&#xa;&#xa;• Windows 토스트&#xa;• 리치 알림&#xa;• 클릭 액션&#xa;• 폴백 메커니즘" style="rounded=1;whiteSpace=wrap;html=1;fontSize=10;fillColor=#DAE8FC;strokeColor=#6C8EBF;" parent="main-process" vertex="1">
          <mxGeometry x="260" y="480" width="180" height="120" as="geometry" />
        </mxCell>
        <mxCell id="settings-service" value="⚙️ SettingsService&#xa;(설정 관리)&#xa;&#xa;• 설정 동기화&#xa;• 자동 시작&#xa;• 캐싱 관리&#xa;• 유효성 검증" style="rounded=1;whiteSpace=wrap;html=1;fontSize=10;fillColor=#DAE8FC;strokeColor=#6C8EBF;" parent="main-process" vertex="1">
          <mxGeometry x="470" y="480" width="180" height="120" as="geometry" />
        </mxCell>
        <mxCell id="tray-service" value="🎭 TrayService&#xa;(시스템 통합)&#xa;&#xa;• 동적 아이콘&#xa;• 컨텍스트 메뉴&#xa;• 상태 표시&#xa;• 시스템 통합" style="rounded=1;whiteSpace=wrap;html=1;fontSize=10;fillColor=#DAE8FC;strokeColor=#6C8EBF;" parent="main-process" vertex="1">
          <mxGeometry x="680" y="480" width="180" height="120" as="geometry" />
        </mxCell>
        <mxCell id="ipc-bridge" value="🌉 IPC Bridge&#xa;(preload.js)&#xa;&#xa;• Context Bridge&#xa;• 안전한 API 노출&#xa;• 양방향 통신&#xa;• 이벤트 전달" style="rounded=1;whiteSpace=wrap;html=1;fontSize=10;fillColor=#E1D5E7;strokeColor=#9673A6;" parent="main-process" vertex="1">
          <mxGeometry x="50" y="640" width="600" height="100" as="geometry" />
        </mxCell>
        <mxCell id="ipc-flow-label" value="🔄 IPC Communication" style="text;html=1;strokeColor=none;fillColor=none;align=center;verticalAlign=middle;whiteSpace=wrap;rounded=0;fontSize=14;fontStyle=1;fontColor=#9673A6;" parent="main-process" vertex="1">
          <mxGeometry x="860" y="360" width="150" height="30" as="geometry" />
        </mxCell>
        <mxCell id="renderer-process" value="🎨 Renderer Process (Frontend)" style="swimlane;whiteSpace=wrap;html=1;fontSize=14;fontStyle=1;fillColor=#FFF2CC;strokeColor=#D6B656;" parent="electron-container" vertex="1">
          <mxGeometry x="1040" y="40" width="494" height="760" as="geometry" />
        </mxCell>
        <mxCell id="react-app" value="⚛️ React 18.2.0&#xa;+ TypeScript 5.3.3&#xa;+ Tailwind CSS" style="rounded=1;whiteSpace=wrap;html=1;fontSize=12;fontStyle=1;fillColor=#F8CECC;strokeColor=#B85450;" parent="renderer-process" vertex="1">
          <mxGeometry x="147" y="40" width="200" height="80" as="geometry" />
        </mxCell>
        <mxCell id="ui-components" value="🧩 UI Components" style="swimlane;whiteSpace=wrap;html=1;fontSize=12;fontStyle=1;fillColor=#E1D5E7;strokeColor=#9673A6;" parent="renderer-process" vertex="1">
          <mxGeometry x="20" y="160" width="454" height="300" as="geometry" />
        </mxCell>
        <mxCell id="streamer-management" value="📺 StreamerManagement&#xa;&#xa;• 스트리머 목록&#xa;• 추가/편집/삭제&#xa;• 프로필 동기화&#xa;• 설정 관리" style="rounded=1;whiteSpace=wrap;html=1;fontSize=10;fillColor=#FFE6CC;strokeColor=#D79B00;" parent="ui-components" vertex="1">
          <mxGeometry x="20" y="40" width="130" height="100" as="geometry" />
        </mxCell>
        <mxCell id="notification-history" value="🔔 NotificationHistory&#xa;&#xa;• 알림 기록&#xa;• 읽음 처리&#xa;• 필터링&#xa;• 통계 표시" style="rounded=1;whiteSpace=wrap;html=1;fontSize=10;fillColor=#FFE6CC;strokeColor=#D79B00;" parent="ui-components" vertex="1">
          <mxGeometry x="170" y="40" width="130" height="100" as="geometry" />
        </mxCell>
        <mxCell id="settings-page" value="⚙️ Settings&#xa;&#xa;• 앱 설정&#xa;• 알림 설정&#xa;• 자동 시작&#xa;• 네이버 로그인" style="rounded=1;whiteSpace=wrap;html=1;fontSize=10;fillColor=#FFE6CC;strokeColor=#D79B00;" parent="ui-components" vertex="1">
          <mxGeometry x="320" y="40" width="120" height="100" as="geometry" />
        </mxCell>
        <mxCell id="streamer-card" value="🃏 StreamerCard&#xa;&#xa;• 글래스모피즘&#xa;• 프로필 이미지&#xa;• 플랫폼 배지&#xa;• 상태 토글" style="rounded=1;whiteSpace=wrap;html=1;fontSize=10;fillColor=#D5E8D4;strokeColor=#82B366;" parent="ui-components" vertex="1">
          <mxGeometry x="20" y="160" width="130" height="100" as="geometry" />
        </mxCell>
        <mxCell id="sidebar" value="🎛️ Sidebar&#xa;&#xa;• 네비게이션&#xa;• 상태 대시보드&#xa;• 실시간 통계&#xa;• 테마 전환" style="rounded=1;whiteSpace=wrap;html=1;fontSize=10;fillColor=#D5E8D4;strokeColor=#82B366;" parent="ui-components" vertex="1">
          <mxGeometry x="170" y="160" width="130" height="100" as="geometry" />
        </mxCell>
        <mxCell id="add-streamer-form" value="➕ AddStreamerForm&#xa;&#xa;• 스트리머 추가&#xa;• 유효성 검사&#xa;• 자동 검색&#xa;• 프리뷰" style="rounded=1;whiteSpace=wrap;html=1;fontSize=10;fillColor=#D5E8D4;strokeColor=#82B366;" parent="ui-components" vertex="1">
          <mxGeometry x="320" y="160" width="120" height="100" as="geometry" />
        </mxCell>
        <mxCell id="data-layer" value="🗄️ Data Layer" style="swimlane;whiteSpace=wrap;html=1;fontSize=16;fontStyle=1;fillColor=#F8CECC;strokeColor=#B85450;" parent="electron-container" vertex="1">
          <mxGeometry y="870" width="1554" height="200" as="geometry" />
        </mxCell>
        <mxCell id="sqlite-db" value="🗄️ SQLite Database&#xa;(better-sqlite3)&#xa;&#xa;• streamers (스트리머 정보)&#xa;• notifications (알림 기록)&#xa;• settings (앱 설정)&#xa;• monitor_states (모니터링 상태)" style="rounded=1;whiteSpace=wrap;html=1;fontSize=11;fillColor=#DAE8FC;strokeColor=#6C8EBF;" parent="data-layer" vertex="1">
          <mxGeometry x="50" y="40" width="300" height="130" as="geometry" />
        </mxCell>
        <mxCell id="external-apis" value="🌐 External APIs" style="swimlane;whiteSpace=wrap;html=1;fontSize=12;fontStyle=1;fillColor=#E1D5E7;strokeColor=#9673A6;" parent="data-layer" vertex="1">
          <mxGeometry x="400" y="40" width="1100" height="130" as="geometry" />
        </mxCell>
        <mxCell id="chzzk-api" value="🎯 CHZZK API&#xa;&#xa;• 실시간 라이브 상태&#xa;• 프로필 이미지&#xa;• 채널 정보" style="rounded=1;whiteSpace=wrap;html=1;fontSize=10;fillColor=#FFE6CC;strokeColor=#D79B00;" parent="external-apis" vertex="1">
          <mxGeometry x="51" y="36" width="150" height="80" as="geometry" />
        </mxCell>
        <mxCell id="nitter-rss" value="🐦 Nitter RSS&#xa;&#xa;• Twitter 피드&#xa;• 다중 인스턴스&#xa;• 텍스트 파싱" style="rounded=1;whiteSpace=wrap;html=1;fontSize=10;fillColor=#FFE6CC;strokeColor=#D79B00;" parent="external-apis" vertex="1">
          <mxGeometry x="221" y="36" width="150" height="80" as="geometry" />
        </mxCell>
        <mxCell id="naver-cafe" value="☕ Naver Cafe&#xa;&#xa;• 웹 스크래핑&#xa;• 세션 관리&#xa;• 자동 로그인" style="rounded=1;whiteSpace=wrap;html=1;fontSize=10;fillColor=#FFE6CC;strokeColor=#D79B00;" parent="external-apis" vertex="1">
          <mxGeometry x="391" y="36" width="150" height="80" as="geometry" />
        </mxCell>
        <mxCell id="windows-api" value="🖥️ Windows APIs&#xa;&#xa;• 토스트 알림&#xa;• 시스템 트레이&#xa;• 자동 시작" style="rounded=1;whiteSpace=wrap;html=1;fontSize=10;fillColor=#FFE6CC;strokeColor=#D79B00;" parent="external-apis" vertex="1">
          <mxGeometry x="561" y="36" width="150" height="80" as="geometry" />
        </mxCell>
        <mxCell id="playwright-browser" value="🎭 Playwright Browser&#xa;&#xa;• Chromium 인스턴스&#xa;• 헤드리스 모드&#xa;• 쿠키 관리" style="rounded=1;whiteSpace=wrap;html=1;fontSize=10;fillColor=#FFE6CC;strokeColor=#D79B00;" parent="external-apis" vertex="1">
          <mxGeometry x="731" y="36" width="150" height="80" as="geometry" />
        </mxCell>
        <mxCell id="file-system" value="📁 File System&#xa;&#xa;• 사용자 데이터&#xa;• 캐시 파일&#xa;• 로그 파일" style="rounded=1;whiteSpace=wrap;html=1;fontSize=10;fillColor=#FFE6CC;strokeColor=#D79B00;" parent="external-apis" vertex="1">
          <mxGeometry x="901" y="36" width="150" height="80" as="geometry" />
        </mxCell>
        <mxCell id="arrow13" value="Data Access" style="endArrow=classic;html=1;rounded=0;exitX=0.5;exitY=1;exitDx=0;exitDy=0;entryX=0.335;entryY=0;entryDx=0;entryDy=0;strokeWidth=3;strokeColor=#B85450;entryPerimeter=0;" parent="electron-container" source="main-process" target="data-layer" edge="1">
          <mxGeometry width="50" height="50" relative="1" as="geometry">
            <mxPoint x="520" y="990" as="sourcePoint" />
            <mxPoint x="570" y="940" as="targetPoint" />
          </mxGeometry>
        </mxCell>
        <mxCell id="data-flow-label" value="📊 Data Flow" style="text;html=1;strokeColor=none;fillColor=none;align=center;verticalAlign=middle;whiteSpace=wrap;rounded=0;fontSize=14;fontStyle=1;fontColor=#B85450;" parent="electron-container" vertex="1">
          <mxGeometry x="550" y="820" width="100" height="30" as="geometry" />
        </mxCell>
        <mxCell id="arrow1" value="" style="endArrow=classic;html=1;rounded=0;exitX=0.5;exitY=1;exitDx=0;exitDy=0;entryX=0.5;entryY=0;entryDx=0;entryDy=0;strokeWidth=2;strokeColor=#D79B00;" parent="1" source="app-core" target="monitoring-service" edge="1">
          <mxGeometry width="50" height="50" relative="1" as="geometry">
            <mxPoint x="570" y="200" as="sourcePoint" />
            <mxPoint x="620" y="150" as="targetPoint" />
          </mxGeometry>
        </mxCell>
        <mxCell id="arrow2" value="" style="endArrow=classic;html=1;rounded=0;exitX=0.2;exitY=1;exitDx=0;exitDy=0;entryX=0.5;entryY=0;entryDx=0;entryDy=0;strokeWidth=2;strokeColor=#B85450;" parent="1" source="monitoring-service" target="chzzk-monitor" edge="1">
          <mxGeometry width="50" height="50" relative="1" as="geometry">
            <mxPoint x="410" y="320" as="sourcePoint" />
            <mxPoint x="460" y="270" as="targetPoint" />
          </mxGeometry>
        </mxCell>
        <mxCell id="arrow3" value="" style="endArrow=classic;html=1;rounded=0;exitX=0.5;exitY=1;exitDx=0;exitDy=0;entryX=0.5;entryY=0;entryDx=0;entryDy=0;strokeWidth=2;strokeColor=#B85450;" parent="1" source="monitoring-service" target="twitter-monitor" edge="1">
          <mxGeometry width="50" height="50" relative="1" as="geometry">
            <mxPoint x="520" y="320" as="sourcePoint" />
            <mxPoint x="570" y="270" as="targetPoint" />
          </mxGeometry>
        </mxCell>
        <mxCell id="arrow4" value="" style="endArrow=classic;html=1;rounded=0;exitX=0.8;exitY=1;exitDx=0;exitDy=0;entryX=0.5;entryY=0;entryDx=0;entryDy=0;strokeWidth=2;strokeColor=#B85450;" parent="1" source="monitoring-service" target="cafe-monitor" edge="1">
          <mxGeometry width="50" height="50" relative="1" as="geometry">
            <mxPoint x="630" y="320" as="sourcePoint" />
            <mxPoint x="680" y="270" as="targetPoint" />
          </mxGeometry>
        </mxCell>
        <mxCell id="arrow5" value="" style="endArrow=classic;html=1;rounded=0;exitX=0.5;exitY=1;exitDx=0;exitDy=0;entryX=0.5;entryY=0;entryDx=0;entryDy=0;strokeWidth=2;strokeColor=#6C8EBF;" parent="1" source="chzzk-monitor" target="database-manager" edge="1">
          <mxGeometry width="50" height="50" relative="1" as="geometry">
            <mxPoint x="210" y="480" as="sourcePoint" />
            <mxPoint x="260" y="430" as="targetPoint" />
          </mxGeometry>
        </mxCell>
        <mxCell id="arrow6" value="" style="endArrow=classic;html=1;rounded=0;exitX=0.5;exitY=1;exitDx=0;exitDy=0;entryX=0.5;entryY=0;entryDx=0;entryDy=0;strokeWidth=2;strokeColor=#6C8EBF;" parent="1" source="twitter-monitor" target="notification-service" edge="1">
          <mxGeometry width="50" height="50" relative="1" as="geometry">
            <mxPoint x="320" y="480" as="sourcePoint" />
            <mxPoint x="370" y="430" as="targetPoint" />
          </mxGeometry>
        </mxCell>
        <mxCell id="arrow7" value="" style="endArrow=classic;html=1;rounded=0;exitX=0.5;exitY=1;exitDx=0;exitDy=0;entryX=0.5;entryY=0;entryDx=0;entryDy=0;strokeWidth=2;strokeColor=#6C8EBF;" parent="1" source="cafe-monitor" target="settings-service" edge="1">
          <mxGeometry width="50" height="50" relative="1" as="geometry">
            <mxPoint x="530" y="480" as="sourcePoint" />
            <mxPoint x="580" y="430" as="targetPoint" />
          </mxGeometry>
        </mxCell>
        <mxCell id="arrow8" value="" style="endArrow=classic;html=1;rounded=0;exitX=0.5;exitY=1;exitDx=0;exitDy=0;entryX=0.2;entryY=0;entryDx=0;entryDy=0;strokeWidth=2;strokeColor=#9673A6;" parent="1" source="database-manager" target="ipc-bridge" edge="1">
          <mxGeometry width="50" height="50" relative="1" as="geometry">
            <mxPoint x="210" y="640" as="sourcePoint" />
            <mxPoint x="260" y="590" as="targetPoint" />
          </mxGeometry>
        </mxCell>
        <mxCell id="arrow9" value="" style="endArrow=classic;html=1;rounded=0;exitX=0.5;exitY=1;exitDx=0;exitDy=0;entryX=0.5;entryY=0;entryDx=0;entryDy=0;strokeWidth=2;strokeColor=#9673A6;" parent="1" source="notification-service" target="ipc-bridge" edge="1">
          <mxGeometry width="50" height="50" relative="1" as="geometry">
            <mxPoint x="420" y="640" as="sourcePoint" />
            <mxPoint x="470" y="590" as="targetPoint" />
          </mxGeometry>
        </mxCell>
        <mxCell id="arrow10" value="" style="endArrow=classic;html=1;rounded=0;exitX=0.5;exitY=1;exitDx=0;exitDy=0;entryX=0.8;entryY=0;entryDx=0;entryDy=0;strokeWidth=2;strokeColor=#9673A6;" parent="1" source="settings-service" target="ipc-bridge" edge="1">
          <mxGeometry width="50" height="50" relative="1" as="geometry">
            <mxPoint x="630" y="640" as="sourcePoint" />
            <mxPoint x="680" y="590" as="targetPoint" />
          </mxGeometry>
        </mxCell>
        <mxCell id="arrow11" value="IPC Communication" style="endArrow=classic;startArrow=classic;html=1;rounded=0;exitX=1;exitY=0.5;exitDx=0;exitDy=0;entryX=0;entryY=0.5;entryDx=0;entryDy=0;strokeWidth=3;strokeColor=#9673A6;" parent="1" source="ipc-bridge" target="react-app" edge="1">
          <mxGeometry width="50" height="50" relative="1" as="geometry">
            <mxPoint x="720" y="690" as="sourcePoint" />
            <mxPoint x="1170" y="160" as="targetPoint" />
            <Array as="points">
              <mxPoint x="1000" y="810" />
              <mxPoint x="1000" y="200" />
            </Array>
          </mxGeometry>
        </mxCell>
        <mxCell id="arrow12" value="" style="endArrow=classic;html=1;rounded=0;exitX=0.5;exitY=1;exitDx=0;exitDy=0;entryX=0.5;entryY=0;entryDx=0;entryDy=0;strokeWidth=2;strokeColor=#D6B656;" parent="1" source="react-app" target="ui-components" edge="1">
          <mxGeometry width="50" height="50" relative="1" as="geometry">
            <mxPoint x="1240" y="200" as="sourcePoint" />
            <mxPoint x="1290" y="150" as="targetPoint" />
          </mxGeometry>
        </mxCell>
      </root>
    </mxGraphModel>
  </diagram>
</mxfile>
